<svg xmlns="http://www.w3.org/2000/svg" width="45.957" height="55.053" viewBox="0 0 45.957 55.053">
  <g id="profiles" transform="translate(-38.937)">
    <g id="Group_28" data-name="Group 28" transform="translate(38.937)">
      <g id="Group_27" data-name="Group 27">
        <path id="Path_89" data-name="Path 89" d="M76.723,0H42.436a3.5,3.5,0,0,0-3.5,3.5v11.9a1.166,1.166,0,1,0,2.332,0V3.5a1.168,1.168,0,0,1,1.166-1.166H76.723A1.168,1.168,0,0,1,77.889,3.5V46.882a1.168,1.168,0,0,1-1.166,1.166H42.436a1.168,1.168,0,0,1-1.166-1.166V25.229a1.166,1.166,0,0,0-2.332,0V46.882a3.5,3.5,0,0,0,3.5,3.5H76.723a3.5,3.5,0,0,0,3.5-3.5V3.5A3.5,3.5,0,0,0,76.723,0Z" transform="translate(-38.937 0)" fill="#303e48"/>
      </g>
    </g>
    <g id="Group_30" data-name="Group 30" transform="translate(38.937 19.45)">
      <g id="Group_29" data-name="Group 29">
        <path id="Path_90" data-name="Path 90" d="M40.928,167.121a1.167,1.167,0,1,0,.342.825A1.173,1.173,0,0,0,40.928,167.121Z" transform="translate(-38.937 -166.78)" fill="#303e48"/>
      </g>
    </g>
    <g id="Group_32" data-name="Group 32" transform="translate(43.609 52.721)">
      <g id="Group_31" data-name="Group 31" transform="translate(0)">
        <path id="Path_91" data-name="Path 91" d="M80.987,452.4a1.166,1.166,0,1,0,.342.825A1.173,1.173,0,0,0,80.987,452.4Z" transform="translate(-78.996 -452.06)" fill="#303e48"/>
      </g>
    </g>
    <g id="Group_34" data-name="Group 34" transform="translate(48.274 4.672)">
      <g id="Group_33" data-name="Group 33">
        <path id="Path_92" data-name="Path 92" d="M154.453,40.063a1.166,1.166,0,0,0-1.166,1.166V86.945a1.168,1.168,0,0,1-1.166,1.166H120.166a1.166,1.166,0,1,0,0,2.332h31.955a3.5,3.5,0,0,0,3.5-3.5V41.229A1.166,1.166,0,0,0,154.453,40.063Z" transform="translate(-119 -40.063)" fill="#303e48"/>
      </g>
    </g>
    <g id="Group_38" data-name="Group 38" transform="translate(45.468 8.63)">
      <g id="Group_37" data-name="Group 37" transform="translate(0)">
        <path id="Path_94" data-name="Path 94" d="M107.3,74H96.1a1.166,1.166,0,0,0-1.166,1.166v11.2A1.166,1.166,0,0,0,96.1,87.528h11.2a1.166,1.166,0,0,0,1.166-1.166v-11.2A1.166,1.166,0,0,0,107.3,74Zm-1.166,11.2H97.269V76.332h8.863Z" transform="translate(-94.937 -74)" fill="#303e48"/>
      </g>
    </g>
    <g id="Group_40" data-name="Group 40" transform="translate(45.895 27.112)">
      <g id="Group_39" data-name="Group 39">
        <path id="Path_95" data-name="Path 95" d="M106.785,232.815a1.166,1.166,0,0,0-1.649,0l-3.1,3.1-1.441-1.442a1.166,1.166,0,0,0-1.649,1.649l2.266,2.266a1.166,1.166,0,0,0,1.649,0l3.925-3.925A1.166,1.166,0,0,0,106.785,232.815Z" transform="translate(-98.603 -232.474)" fill="#FF4B4B"/>
      </g>
    </g>
    <g id="Group_42" data-name="Group 42" transform="translate(58.413 29.039)">
      <g id="Group_41" data-name="Group 41">
        <path id="Path_96" data-name="Path 96" d="M220.709,249H207.1a1.166,1.166,0,0,0,0,2.332h13.606a1.166,1.166,0,0,0,0-2.332Z" transform="translate(-205.937 -249)" fill="#303e48"/>
      </g>
    </g>
    <g id="Group_44" data-name="Group 44" transform="translate(63.195 8.63)">
      <g id="Group_43" data-name="Group 43" transform="translate(0)">
        <path id="Path_97" data-name="Path 97" d="M256.267,74H248.1a1.166,1.166,0,0,0,0,2.332h8.164a1.166,1.166,0,0,0,0-2.332Z" transform="translate(-246.937 -74)" fill="#FF4B4B"/>
      </g>
    </g>
    <g id="Group_46" data-name="Group 46" transform="translate(63.195 14.228)">
      <g id="Group_45" data-name="Group 45" transform="translate(0)">
        <path id="Path_98" data-name="Path 98" d="M256.267,122H248.1a1.166,1.166,0,0,0,0,2.332h8.164a1.166,1.166,0,0,0,0-2.332Z" transform="translate(-246.937 -122)" fill="#FF4B4B"/>
      </g>
    </g>
    <g id="Group_48" data-name="Group 48" transform="translate(63.195 19.826)">
      <g id="Group_47" data-name="Group 47" transform="translate(0)">
        <path id="Path_99" data-name="Path 99" d="M256.267,170H248.1a1.166,1.166,0,0,0,0,2.332h8.164a1.166,1.166,0,0,0,0-2.332Z" transform="translate(-246.937 -170)" fill="#FF4B4B"/>
      </g>
    </g>
    <g id="Group_50" data-name="Group 50" transform="translate(45.895 36.018)">
      <g id="Group_49" data-name="Group 49">
        <path id="Path_100" data-name="Path 100" d="M106.785,309.182a1.167,1.167,0,0,0-1.649,0l-3.1,3.1-1.441-1.442a1.166,1.166,0,0,0-1.649,1.649l2.266,2.266a1.166,1.166,0,0,0,1.649,0l3.925-3.925A1.166,1.166,0,0,0,106.785,309.182Z" transform="translate(-98.603 -308.841)" fill="#FF4B4B"/>
      </g>
    </g>
    <g id="Group_52" data-name="Group 52" transform="translate(58.413 37.902)">
      <g id="Group_51" data-name="Group 51">
        <path id="Path_101" data-name="Path 101" d="M220.709,325H207.1a1.166,1.166,0,1,0,0,2.332h13.606a1.166,1.166,0,1,0,0-2.332Z" transform="translate(-205.937 -325)" fill="#303e48"/>
      </g>
    </g>
  </g>
</svg>
