<?xml version="1.0" encoding="utf-8"?>
<!-- Generator: Adobe Illustrator 23.0.3, SVG Export Plug-In . SVG Version: 6.00 Build 0)  -->
<svg version="1.1" id="Laag_1" xmlns="http://www.w3.org/2000/svg" xmlns:xlink="http://www.w3.org/1999/xlink" x="0px" y="0px"
	 viewBox="0 0 62.7 62.7" style="enable-background:new 0 0 62.7 62.7;" xml:space="preserve">
<style type="text/css">
	.st0{fill:#FF4B4B;}
	.st1{fill:#303E48;}
</style>
<g id="calendar" transform="translate(-0.028)">
	<g id="XMLID_1295_" transform="translate(0.028)">
		<g id="XMLID_1296_" transform="translate(0)">
			<g id="XMLID_1297_">
				<path id="XMLID_1314_" class="st0" d="M28.7,37.1h-2.9V26.3c0-0.7-0.5-1.1-1.1-1.1c-0.3,0-0.6,0.1-0.9,0.4l-3.1,3.1
					c-0.5,0.5-0.5,1.1-0.1,1.6c0.5,0.5,1.1,0.5,1.6,0.1c0,0,0,0,0.1-0.1l1.1-1.1v7.9h-2.9c-0.7,0-1.1,0.5-1.1,1.1s0.5,1.1,1.1,1.1h8
					c0.7,0,1.1-0.5,1.1-1.1C29.9,37.6,29.4,37.1,28.7,37.1L28.7,37.1z"/>
				<path id="XMLID_1313_" class="st1" d="M27.9,47.1c-0.7,0-1.1,0.5-1.1,1.1c0,0.7,0.5,1.1,1.1,1.1c0.7,0,1.1-0.5,1.1-1.1
					c0-0.3-0.1-0.6-0.4-0.9C28.4,47.2,28.2,47.1,27.9,47.1z"/>
				<path id="XMLID_1311_" class="st1" d="M42.5,19.5c0.5-0.5,0.5-1.2,0-1.6s-1.2-0.5-1.6,0c-0.4,0.5-0.5,1.2,0,1.6
					c0.2,0.2,0.5,0.4,0.9,0.4C42,19.8,42.3,19.7,42.5,19.5z"/>
				<path id="XMLID_1303_" class="st1" d="M57,35.8c-2.5-2.5-5.8-4.1-9.5-4.3V9.6c0-1.9-1.5-3.5-3.5-3.5h-6.3V5.4c0-2.2-1.7-4-3.9-4
					s-4,1.7-4,3.9v0.1v0.7H19.3V5.4c0-2.2-1.8-3.9-4-3.9s-3.9,1.8-3.9,3.9v0.7H5c-2,0-3.5,1.5-3.5,3.5v36.3c0,1.9,1.5,3.5,3.5,3.5
					h18.2c0.7,0,1.1-0.5,1.1-1.1s-0.5-1.1-1.1-1.1H5c-0.7,0-1.1-0.5-1.1-1.1V19.8H37c0.7,0,1.1-0.5,1.1-1.1c0-0.7-0.5-1.1-1.1-1.1
					H3.8v-8C3.8,9,4.3,8.5,5,8.5h6.3v1.9c0,2.2,1.7,4,3.9,4s4-1.7,4-3.9v-0.1V8.5h10.5v1.9c0,2.2,1.7,4,3.9,4s4-1.7,4-3.9v-0.1V8.5
					h6.3C44.6,8.5,45,9,45,9.6v21.9c-8.2,0.7-14.4,7.8-13.7,16.1C32,55.9,39.1,62,47.4,61.4c8.3-0.7,14.4-7.8,13.7-16.1
					C61,41.6,59.5,38.3,57,35.8L57,35.8z M16.9,10.4c0,0.9-0.8,1.6-1.7,1.6c-0.9,0-1.6-0.8-1.6-1.6v-5c0-0.9,0.8-1.6,1.7-1.6
					s1.6,0.8,1.6,1.6V10.4z M35.3,10.4c0,0.9-0.7,1.6-1.6,1.7c-0.9,0-1.6-0.7-1.7-1.6v-0.1v-5c0-0.9,0.7-1.6,1.6-1.7
					c0.9,0,1.6,0.7,1.7,1.6v0.1V10.4z M55.3,55.3c-5,5-12.9,5-17.9,0s-5-12.9,0-17.9s12.9-5,17.9,0S60.2,50.4,55.3,55.3z"/>
				<path id="XMLID_1302_" class="st1" d="M46.4,54.1c-0.7,0-1.1,0.5-1.1,1.1l0,0v0.9c0,0.7,0.5,1.1,1.1,1.1s1.1-0.5,1.1-1.1v-0.9
					C47.5,54.6,47,54.1,46.4,54.1L46.4,54.1z"/>
				<path id="XMLID_1301_" class="st1" d="M46.4,38.7c0.7,0,1.1-0.5,1.1-1.1l0,0v-0.9c0-0.7-0.5-1.1-1.1-1.1s-1.1,0.5-1.1,1.1v0.9
					C45.1,38.1,45.7,38.7,46.4,38.7L46.4,38.7z"/>
				<path id="XMLID_1300_" class="st1" d="M37.5,45.1h-0.9c-0.7,0-1.1,0.5-1.1,1.1c0,0.7,0.5,1.1,1.1,1.1h0.9c0.7,0,1.1-0.5,1.1-1.1
					C38.7,45.6,38.1,45.1,37.5,45.1L37.5,45.1z"/>
				<path id="XMLID_1299_" class="st1" d="M56.1,45.2h-0.9c-0.7,0-1.1,0.5-1.1,1.1c0,0.7,0.5,1.1,1.1,1.1l0,0h0.9
					c0.7,0,1.1-0.5,1.1-1.1C57.3,45.7,56.7,45.2,56.1,45.2z"/>
				<path id="XMLID_1298_" class="st0" d="M51.7,39.3l-5.3,5.3l-2.2-2.2c-0.5-0.5-1.1-0.5-1.6,0s-0.5,1.1,0,1.6l3,3.2
					c0.2,0.2,0.6,0.4,0.9,0.4l0,0c0.3,0,0.6-0.1,0.9-0.4l6.2-6.2c0.5-0.5,0.5-1.2,0-1.6C53,39,52.2,38.8,51.7,39.3L51.7,39.3z"/>
			</g>
		</g>
	</g>
</g>
</svg>
