<?xml version="1.0" encoding="utf-8"?>
<!-- Generator: Adobe Illustrator 23.0.3, SVG Export Plug-In . SVG Version: 6.00 Build 0)  -->
<svg version="1.1" id="Laag_1" xmlns="http://www.w3.org/2000/svg" xmlns:xlink="http://www.w3.org/1999/xlink" x="0px" y="0px"
	 viewBox="0 0 49.9 55.1" style="enable-background:new 0 0 49.9 55.1;" xml:space="preserve">
<style type="text/css">
	.st0{fill:#303E48;}
	.st1{fill:#FF4B4B;}
</style>
<path id="in-love" class="st0" d="M3.5,49.7c0,0.9,0.7,1.5,1.5,1.5h15.2c0.3,0,0.7-0.3,0.7-0.7c0-0.3-0.3-0.7-0.7-0.7l0,0h-9.6v-9.6
	c0-0.3-0.3-0.7-0.7-0.7s-0.7,0.3-0.7,0.7l0,0v9.6H5c-0.1,0-0.2-0.1-0.2-0.2l0,0v-9.6c0-2.2,1.3-4.3,3.4-5.3l7.7-3
	c0.9,0.9,2.8,3.2,6,3.2c2.1-0.1,4-0.9,5.3-2.5l0.8-0.8l0.2,0.1c0,0.2,0,0.4,0,0.6c0,3.7,2.2,6.7,5.2,9v8.4h-9.9
	c-0.3,0-0.7,0.3-0.7,0.7c0,0.3,0.3,0.7,0.7,0.7l0,0H39c0.9,0,1.5-0.7,1.5-1.5l0,0v-7.6c2.2-1.5,5.1-4.1,5.9-7.7
	c0.1-0.3-0.2-0.8-0.5-0.9c-0.3-0.1-0.8,0.2-0.9,0.5l0,0c-0.8,3.6-4.3,6.5-7.6,8.2c-0.1,0-0.2,0-0.2,0c-3.9-1.9-7.7-5.4-7.7-9.8
	c0-2,1.6-3.6,3.6-3.5c1.3,0,2.5,0.7,3.1,1.8c0.3,0.4,0.7,0.6,1.1,0.6l0,0c0.4,0,0.9-0.3,1.1-0.6c0.9-1.4,2.5-2.1,4-1.7
	c1.1,0.3,2.1,1.1,2.4,2.2c0.2,0.3,0.5,0.5,0.9,0.4c0.3-0.2,0.5-0.5,0.4-0.9c-0.9-2.6-3.9-3.9-6.4-2.9c-1,0.4-2,1.1-2.5,2.2
	c-1.4-2.3-4.5-3.2-6.8-1.7c-0.9,0.5-1.6,1.4-2.1,2.3l-0.5-0.2l-1.2-0.5c-0.1,0-0.2-0.1-0.2-0.2v-2.2c1.6-1.2,2.7-3,2.9-5.1
	c1.8-0.1,3.2-1.5,3.3-3.4c0-0.8-0.3-1.5-0.9-2.2v-3.1c0-5.5-4.5-10-10-10S12,8.3,12,13.7v3.2c-0.5,0.6-0.9,1.3-0.9,2.1
	c0.1,1.8,1.5,3.3,3.3,3.4c0.3,2.1,1.4,4,3,5.2v2.2c0,0.1-0.1,0.3-0.2,0.3l-9.6,3.7l0,0c-2.6,1.1-4.2,3.7-4.2,6.5V49.7z M34.6,42.5
	c0.6,0.4,1.3,0.8,2,1.1c0.4,0.3,0.9,0.3,1.5,0c0.3-0.2,0.8-0.3,1.1-0.6v6.7c0,0.1-0.1,0.2-0.2,0.2l0,0h-4.3L34.6,42.5L34.6,42.5z
	 M31.3,19c-0.1,1-0.8,1.8-1.8,1.9V17C30.5,17.2,31.3,18,31.3,19z M14.3,21c-1-0.1-1.7-0.9-1.8-1.9c0.1-0.9,0.9-1.7,1.8-1.9V21z
	 M14.4,15.7c-0.3,0.1-0.7,0.2-0.9,0.3v-2.2c0-4.7,3.8-8.5,8.5-8.5s8.5,3.8,8.5,8.5v2.2c-0.3-0.1-0.6-0.2-0.9-0.3v-0.2
	c0-0.6-0.1-0.6-2.5-3.2c-0.4-0.4-1.1-0.6-1.7-0.2c-2.8,1.9-6.2,2.8-9.6,2.6C15.1,14.6,14.5,15,14.4,15.7z M15.7,21.5v-5.4
	c3.6,0.2,7.2-0.8,10.2-2.8c1.3,1.4,1.9,2.1,2.2,2.3c0,6.8,0,5.9,0,6c-0.1,3.4-3,6.1-6.4,5.9C18.5,27.4,15.8,24.8,15.7,21.5
	L15.7,21.5z M17.8,31.2c0.6-0.3,1-0.9,1-1.5v-1.3c1,0.4,2.1,0.6,3.2,0.6c1.1,0,2.2-0.3,3.2-0.7v1.4c0,0.7,0.4,1.3,1,1.5l0.3,0.2
	l-0.3,0.3c-1.1,1.2-2.7,2-4.3,2c-1.6,0-3.2-0.8-4.3-2l-0.3-0.3L17.8,31.2z"/>
<path id="in-love_1_" class="st1" d="M28,31.8c0,0.2,0,0.4,0,0.6c0,3.7,2.2,6.7,5.2,9c3.3,2.4,3.9,3.6,7.3,0.7
	c2.2-1.5,5.1-4.1,5.9-7.7c0.1-0.3-0.2-0.8-0.5-0.9c-0.3-0.1-0.8,0.2-0.9,0.5l0,0c-0.8,3.6-4.3,6.5-7.6,8.2c-0.1,0-0.2,0-0.2,0
	c-3.9-1.9-7.7-5.4-7.7-9.8c0-2,1.6-3.6,3.6-3.5c1.3,0,2.5,0.7,3.1,1.8c0.3,0.4,0.7,0.6,1.1,0.6l0,0c0.4,0,0.9-0.3,1.1-0.6
	c0.9-1.4,2.5-2.1,4-1.7c1.1,0.3,2.1,1.1,2.4,2.2c0.2,0.3,0.5,0.5,0.9,0.4c0.3-0.2,0.5-0.5,0.4-0.9c-0.9-2.6-3.9-3.9-6.4-2.9
	c-1,0.4-2,1.1-2.5,2.2c-1.4-2.3-4.5-3.2-6.8-1.7c-0.9,0.5-1.6,1.4-2.1,2.3C28.3,30.4,28.3,30.4,28,31.8z"/>
</svg>
