<?xml version="1.0" encoding="utf-8"?>
<!-- Generator: Adobe Illustrator 23.0.3, SVG Export Plug-In . SVG Version: 6.00 Build 0)  -->
<svg version="1.1" id="diagram" xmlns="http://www.w3.org/2000/svg" xmlns:xlink="http://www.w3.org/1999/xlink" x="0px" y="0px"
	 viewBox="0 0 55.9 55.9" style="enable-background:new 0 0 55.9 55.9;" xml:space="preserve">
<style type="text/css">
	.st0{fill:#303E48;}
	.st1{fill:#FF4B4B;}
</style>
<g id="Group_62">
	<g id="Group_61">
		<path id="Path_106" class="st0" d="M52.9,51.9h-2.2V3c0-0.5-0.4-1-1-1h-1.5c-0.3,0-0.7,0.2-0.9,0.3L36.9,15.9l-3.4-5.5
			c-0.3-0.4-0.9-0.7-1.4-0.3c-0.1,0.1-0.2,0.2-0.3,0.3L19.6,26.8l-3.6-1.6c-0.3-0.2-0.9-0.1-1.1,0.2l-8.6,7.9L4,35.3V3
			c0-0.5-0.4-1-1-1S1.9,2.4,1.9,3v50c0,0.5,0.4,1,1,1l0,0h50c0.5,0,1-0.4,1-1C53.9,52.5,53.5,51.9,52.9,51.9L52.9,51.9z M48.6,51.9
			H4V38.1l3.7-3.3l0,0l8-7.5l3.6,1.6c0.4,0.2,0.9,0.1,1.2-0.3l12-15.9l3.4,5.6c0.3,0.4,0.9,0.7,1.4,0.3c0.1-0.1,0.2-0.2,0.3-0.3
			L48.6,4V51.9z"/>
	</g>
</g>
<g id="Group_64" transform="translate(18.123 33.736)">
	<g id="Group_63">
		<path id="Path_107" class="st1" d="M1.7-0.4c-0.5,0-1,0.4-1,1s0.4,1.1,1,1.1s1-0.4,1-1S2.2-0.4,1.7-0.4z"/>
	</g>
</g>
<g id="Group_66" transform="translate(18.123 38.103)">
	<g id="Group_65">
		<path id="Path_108" class="st1" d="M1.7-0.7c-0.5,0-1,0.4-1,1v10.4c0,0.5,0.4,1,1,1s1-0.4,1-1V0.3C2.8-0.2,2.2-0.7,1.7-0.7z"/>
	</g>
</g>
<g id="Group_68" transform="translate(31.88 20.307)">
	<g id="Group_67">
		<path id="Path_109" class="st0" d="M0.7,0.6c-0.5,0-1,0.4-1,1v27c0,0.5,0.4,1,1,1s1-0.4,1-1l0,0v-27C1.8,1,1.3,0.6,0.7,0.6z"/>
	</g>
</g>
<g id="Group_70" transform="translate(31.88 15.94)">
	<g id="Group_69">
		<path id="Path_110" class="st0" d="M0.7,0.8c-0.5,0-1,0.4-1,1s0.4,1,1,1s1-0.4,1-1S1.3,0.8,0.7,0.8z"/>
	</g>
</g>
<g id="Group_72" transform="translate(45.636 10.918)">
	<g id="Group_71">
		<path id="Path_111" class="st1" d="M-0.1,1.2c-0.5,0-1,0.4-1,1s0.4,1,1,1s1-0.4,1-1S0.4,1.2-0.1,1.2z"/>
	</g>
</g>
<g id="Group_74" transform="translate(45.636 15.285)">
	<g id="Group_73">
		<path id="Path_112" class="st1" d="M-0.1,0.9c-0.5,0-1,0.4-1,1v31.7c0,0.5,0.4,1,1,1s1-0.4,1-1V1.8C0.8,1.3,0.4,0.9-0.1,0.9z"/>
	</g>
</g>
</svg>
