<?xml version="1.0" encoding="utf-8"?>
<!-- Generator: Adobe Illustrator 23.0.3, SVG Export Plug-In . SVG Version: 6.00 Build 0)  -->
<svg version="1.1" id="Laag_1" xmlns="http://www.w3.org/2000/svg" xmlns:xlink="http://www.w3.org/1999/xlink" x="0px" y="0px"
	 viewBox="0 0 52.9 46.7" style="enable-background:new 0 0 52.9 46.7;" xml:space="preserve">
<style type="text/css">
	.st0{fill:#FF4B4B;}
	.st1{fill:#303E48;}
</style>
<g id="health" transform="translate(0 -30.165)">
	<g id="Group_86" transform="translate(42.859 35.508)">
		<g id="Group_85">
			<path id="Path_118" class="st0" d="M-0.3,1.4c-0.5,0-1,0.4-1,1s0.4,1,1,1c0.5,0,1-0.4,1-1v0C0.6,1.8,0.2,1.4-0.3,1.4z"/>
		</g>
	</g>
	<g id="Group_88" transform="translate(0 30.165)">
		<g id="Group_87">
			<path id="Path_119" class="st1" d="M47.5,5.8c-2.2-2.5-5.5-4-8.9-4c-3.8,0-7.4,1.5-10,4.2c-0.8,0.8-1.5,1.7-2.2,2.7
				c-0.6-1-1.4-1.9-2.2-2.7c-2.6-2.7-6.2-4.2-10-4.2c-7.2,0-12.3,6-12.3,13.2c0,9.7,10.3,17.9,23.8,29.6c0.4,0.3,0.9,0.3,1.2,0
				c13.5-11.7,23.8-19.9,23.8-29.6C50.9,11.7,49.7,8.4,47.5,5.8z M26.5,42.7C13.7,31.6,4,23.7,4,15.1C4,8.6,8.4,3.7,14.3,3.7
				c3.2,0,6.3,1.3,8.6,3.6c1.1,1.1,2,2.3,2.7,3.7c0.2,0.3,0.5,0.6,0.9,0.6l0,0c0.4,0,0.7-0.2,0.9-0.6C28,9.7,28.9,8.4,30,7.4
				c2.2-2.3,5.3-3.6,8.6-3.6C44.5,3.7,49,8.6,49,15.1C49,23.9,38.6,32.2,26.5,42.7L26.5,42.7z"/>
		</g>
	</g>
	<g id="Group_90" transform="translate(42.035 38.637)">
		<g id="Group_89" transform="translate(0 0)">
			<path id="Path_120" class="st1" d="M3.8,1.7C3.6,1.2,3,1,2.5,1.3C2.1,1.6,1.9,2.1,2.1,2.6c0.6,1.2,1,2.6,1,4
				c0,2.8-1.3,5.7-4.1,9.2c-0.3,0.4-0.3,1,0.1,1.3c0.4,0.3,1,0.3,1.3-0.1C3.6,13.1,5,9.8,5,6.6C5,4.9,4.6,3.2,3.8,1.7z"/>
		</g>
	</g>
	<g id="Group_92" transform="translate(15.51 43.159)">
		<g id="Group_91">
			<path id="Path_121" class="st0" d="M20.1,7.1h-5.3V1.8c0-0.5-0.4-1-1-1H8.1c-0.5,0-1,0.4-1,1v5.3H1.8c-0.5,0-1,0.4-1,0.9
				c0,0,0,0,0,0v5.7c0,0.5,0.4,1,1,1h5.3v5.3c0,0.5,0.4,1,1,1h5.7c0.5,0,1-0.4,1-1v-5.3h5.3c0.5,0,1-0.4,1-1V8.1
				C21.1,7.5,20.6,7.1,20.1,7.1z M19.2,12.8h-5.3c-0.5,0-1,0.4-1,1v5.3H9.1v-5.3c0-0.5-0.4-1-1-1H2.8V9h5.3c0.5,0,1-0.4,1-1V2.7h3.8
				V8c0,0.5,0.4,1,1,1h5.3V12.8z"/>
		</g>
	</g>
</g>
</svg>
