<?xml version="1.0" encoding="utf-8"?>
<!-- Generator: Adobe Illustrator 23.0.3, SVG Export Plug-In . SVG Version: 6.00 Build 0)  -->
<svg version="1.1" id="Laag_1" xmlns="http://www.w3.org/2000/svg" xmlns:xlink="http://www.w3.org/1999/xlink" x="0px" y="0px"
	 viewBox="0 0 45.6 60.6" style="enable-background:new 0 0 45.6 60.6;" xml:space="preserve">
<style type="text/css">
	.st0{fill:#303E48;}
	.st1{fill:#FF4B4B;}
</style>
<g id="maid" transform="translate(-63.175)">
	<g id="Group_82" transform="translate(63.175 0)">
		<g id="Group_81" transform="translate(0 0)">
			<path id="Path_116" class="st0" d="M40.3,31.4h-6.4v-6.3c0-0.7-0.6-1.3-1.3-1.3s-1.3,0.6-1.3,1.3l0,0v6.4H29V12.1
				c0-0.7,0.6-1.2,1.2-1.2c0.7,0,1.2,0.6,1.2,1.2V18c0,0.7,0.6,1.3,1.3,1.3s1.3-0.6,1.3-1.3l0,0v-5.9c0-2-1.6-3.7-3.7-3.7
				s-3.6,1.6-3.6,3.7v19.4h-4.1V28c0-0.7-0.6-1.3-1.3-1.3H7.8c-0.7,0-1.3,0.6-1.3,1.3v3.5H2.8c-0.7,0-1.3,0.6-1.3,1.3v4.8
				c0,0.7,0.6,1.3,1.3,1.3h1.6l3,12.2c0.1,0.6,0.6,1.1,1.3,1.1h25.1c0.6,0,1.2-0.4,1.3-1.1l3-12.2h2.3c2,0,3.7-1.6,3.7-3.7
				C44,33.1,42.4,31.4,40.3,31.4L40.3,31.4z M9,29.3h11v2.2H9V29.3z M4.1,36.4V34h16.1c-0.3,0.8-0.3,1.6,0,2.4H4.1L4.1,36.4z
				 M32.8,49.7H9.7L7,38.9h28.5L32.8,49.7z M41.2,36c-0.2,0.2-0.5,0.4-0.9,0.4H23.7c-0.7,0-1.2-0.6-1.2-1.2c0-0.3,0.1-0.6,0.4-0.9
				c0.2-0.2,0.5-0.4,0.9-0.4h16.6c0.7,0,1.2,0.6,1.2,1.2C41.5,35.5,41.4,35.8,41.2,36L41.2,36z"/>
		</g>
	</g>
	<g id="Group_84" transform="translate(95.26 21.367)">
		<g id="Group_83" transform="translate(0)">
			<path id="Path_117" class="st1" d="M0.6-1.3c-0.7,0-1.3,0.6-1.3,1.3v0.3c0,0.7,0.6,1.3,1.3,1.3s1.3-0.6,1.3-1.3V0
				C1.8-0.8,1.3-1.3,0.6-1.3L0.6-1.3z"/>
		</g>
	</g>
</g>
</svg>
