<?xml version="1.0" encoding="utf-8"?>
<!-- Generator: Adobe Illustrator 23.0.3, SVG Export Plug-In . SVG Version: 6.00 Build 0)  -->
<svg version="1.1" id="Laag_1" xmlns="http://www.w3.org/2000/svg" xmlns:xlink="http://www.w3.org/1999/xlink" x="0px" y="0px"
	 viewBox="0 0 53.7 57.2" style="enable-background:new 0 0 53.7 57.2;" xml:space="preserve">
<style type="text/css">
	.st0{fill:#FF4B4B;}
	.st1{fill:#303E48;}
</style>
<g id="medicine" transform="translate(-15.701)">
	<g id="Group_76" transform="translate(26.867 14.07)">
		<g id="Group_75">
			<path id="Path_113" class="st0" d="M2.8,1.7c-0.5,0-1,0.4-1,1s0.4,1,1,1s1-0.4,1-1l0,0C3.8,2.1,3.3,1.7,2.8,1.7z"/>
		</g>
	</g>
	<g id="Group_78" transform="translate(27.984 30.484)">
		<g id="Group_77">
			<path id="Path_114" class="st0" d="M10.6,3.8h-3v-3c0-0.5-0.4-1-1-1c-0.5-0.1-1,0.4-1,0.9c0,0,0,0,0,0.1v3h-3
				c-0.5-0.1-1,0.4-1,0.9s0.4,1,1,1c0,0,0,0,0.1,0h2.9v3c0,0.5,0.4,1,1,1s1-0.4,1-1c0,0,0,0,0-0.1V5.7h3c0.5,0,1-0.4,1-1
				C11.6,4.2,11.1,3.8,10.6,3.8L10.6,3.8L10.6,3.8z"/>
		</g>
	</g>
	<g id="Group_80" transform="translate(15.701)">
		<g id="Group_79" transform="translate(0)">
			<path id="Path_115" class="st1" d="M49.5,35.1c-2.2-3.8-7-5-10.8-2.9l0,0l-4,2.3v-8.6c0-1.1-0.4-2.1-1-3l-5-6.5v-2.8
				c1.1-0.4,1.9-1.5,1.9-2.8V6.2c0-1.6-1.3-2.9-2.9-2.9H10c-1.6,0-2.9,1.3-2.9,2.9v4.5c0,1.2,0.8,2.4,1.9,2.8v2.8l-5,6.5
				c-0.6,0.9-1,1.9-1,3V45c0,2.7,2.2,5,5,5h15.8c2.2,3.7,7,5,10.8,2.8l11.9-6.9C50.4,43.7,51.7,38.9,49.5,35.1z M9,6.2
				c0-0.5,0.4-1,1-1h17.8c0.5,0,1,0.4,1,1v4.5c0,0.5-0.4,1-1,1H10c-0.5,0-1-0.4-1-1C9,10.7,9,6.2,9,6.2z M5.7,24.2l5.1-6.8
				c0.1-0.2,0.2-0.4,0.2-0.6v-3h15.8v1.9H18c-0.5,0-1,0.4-1,1c0,0.5,0.4,1,1,1c0,0,0,0,0.1,0h9.4l4.9,6.5c0.4,0.4,0.5,0.9,0.5,1.4
				H5.1C5.1,25.1,5.3,24.6,5.7,24.2z M8.1,48.1c-1.6,0-2.9-1.3-3-2.9v-1h18c-0.4,1.3-0.3,2.7,0.1,4L8.1,48.1L8.1,48.1z M23.8,42.1H5
				V27.6h27.7v8l-6,3.4C25.5,39.8,24.5,40.9,23.8,42.1L23.8,42.1z M33.6,51.1c-2.8,1.7-6.5,0.8-8.1-1.9c-1.7-2.8-0.8-6.5,1.9-8.1
				c0.1-0.1,0.2-0.1,0.3-0.2l5.4-3.1L39,48L33.6,51.1z M45.6,44.2L40.8,47l-5.9-10.3l4.9-2.8c2.8-1.7,6.5-0.8,8.1,1.9
				c1.7,2.8,0.8,6.5-1.9,8.1C45.8,44.1,45.7,44.2,45.6,44.2z"/>
		</g>
	</g>
</g>
</svg>
