<?xml version="1.0" encoding="utf-8"?>
<!-- Generator: Adobe Illustrator 23.0.3, SVG Export Plug-In . SVG Version: 6.00 Build 0)  -->
<svg version="1.1" id="Laag_1" xmlns="http://www.w3.org/2000/svg" xmlns:xlink="http://www.w3.org/1999/xlink" x="0px" y="0px"
	 viewBox="0 0 46 55.1" style="enable-background:new 0 0 46 55.1;" xml:space="preserve">
<style type="text/css">
	.st0{fill:#303E48;}
	.st1{fill:#FF4B4B;}
</style>
<g id="profiles" transform="translate(-38.937)">
	<g id="Group_28" transform="translate(38.937)">
		<g id="Group_27">
			<path id="Path_89" class="st0" d="M35.2,4.8H6.9C5.3,4.8,4,6.1,4,7.7v9.8c0,0.5,0.4,1,1,1s1-0.4,1-1V7.7c0-0.5,0.4-1,1-1h28.3
				c0.5,0,1,0.4,1,1v35.8c0,0.5-0.4,1-1,1H6.9c-0.5,0-1-0.4-1-1V25.6c0-0.5-0.4-1-1-1s-1,0.4-1,1v17.9c0,1.6,1.3,2.9,2.9,2.9h28.3
				c1.6,0,2.9-1.3,2.9-2.9V7.7C38.1,6.1,36.8,4.8,35.2,4.8z"/>
		</g>
	</g>
	<g id="Group_30" transform="translate(38.937 19.45)">
		<g id="Group_29">
			<path id="Path_90" class="st0" d="M5.7,1.7c-0.4-0.4-1-0.4-1.4,0c-0.4,0.4-0.4,1,0,1.4c0.4,0.4,1,0.4,1.4,0
				c0.2-0.2,0.3-0.4,0.3-0.7C5.9,2.1,5.8,1.9,5.7,1.7z"/>
		</g>
	</g>
	<g id="Group_32" transform="translate(43.609 52.721)">
		<g id="Group_31" transform="translate(0)">
			<path id="Path_91" class="st0" d="M4.8-4.1c-0.4-0.4-1-0.4-1.4,0c-0.4,0.4-0.4,1,0,1.4s1,0.4,1.4,0C5-2.9,5.1-3.2,5.1-3.4
				C5.1-3.7,5-3.9,4.8-4.1z"/>
		</g>
	</g>
	<g id="Group_34" transform="translate(48.274 4.672)">
		<g id="Group_33">
			<path id="Path_92" class="st0" d="M31.6,4c-0.5,0-1,0.4-1,1l0,0v37.7c0,0.5-0.4,1-1,1H3.3c-0.5,0-1,0.4-1,1s0.4,1,1,1h26.4
				c1.6,0,2.9-1.3,2.9-2.9V5C32.6,4.4,32.2,4,31.6,4C31.6,4,31.6,4,31.6,4z"/>
		</g>
	</g>
	<g id="Group_38" transform="translate(45.468 8.63)">
		<g id="Group_37" transform="translate(0)">
			<path id="Path_94" class="st0" d="M13.1,3.3H3.8c-0.5,0-1,0.4-1,1l0,0v9.2c0,0.5,0.4,1,1,1h9.2c0.5,0,1-0.4,1-1l0,0V4.3
				C14,3.7,13.6,3.3,13.1,3.3z M12.1,12.5H4.8V5.2h7.3L12.1,12.5z"/>
		</g>
	</g>
	<g id="Group_40" transform="translate(45.895 27.112)">
		<g id="Group_39">
			<path id="Path_95" class="st1" d="M9.6,0.4C9.2,0,8.6,0,8.2,0.4c0,0,0,0,0,0L5.6,2.9L4.4,1.7c-0.4-0.4-1-0.4-1.4,0s-0.4,1,0,1.4
				L5,5c0.4,0.4,1,0.4,1.4,0c0,0,0,0,0,0l3.2-3.2C9.9,1.3,9.9,0.7,9.6,0.4z"/>
		</g>
	</g>
	<g id="Group_42" transform="translate(58.413 29.039)">
		<g id="Group_41">
			<path id="Path_96" class="st0" d="M12.8-0.3H1.6c-0.5,0-1,0.4-1,1s0.4,1,1,1h11.2c0.5,0,1-0.4,1-1S13.3-0.3,12.8-0.3L12.8-0.3z"
				/>
		</g>
	</g>
	<g id="Group_44" transform="translate(63.195 8.63)">
		<g id="Group_43" transform="translate(0)">
			<path id="Path_97" class="st1" d="M7.5,3.3H0.7c-0.5,0-1,0.4-1,1s0.4,1,1,1h6.7c0.5,0,1-0.4,1-1S8,3.3,7.5,3.3L7.5,3.3z"/>
		</g>
	</g>
	<g id="Group_46" transform="translate(63.195 14.228)">
		<g id="Group_45" transform="translate(0)">
			<path id="Path_98" class="st1" d="M7.5,2.3H0.7c-0.5,0-1,0.4-1,1s0.4,1,1,1h6.7c0.5,0,1-0.4,1-1S8,2.3,7.5,2.3L7.5,2.3z"/>
		</g>
	</g>
	<g id="Group_48" transform="translate(63.195 19.826)">
		<g id="Group_47" transform="translate(0)">
			<path id="Path_99" class="st1" d="M7.5,1.3H0.7c-0.5,0-1,0.4-1,1s0.4,1,1,1h6.7c0.5,0,1-0.4,1-1S8,1.3,7.5,1.3L7.5,1.3z"/>
		</g>
	</g>
	<g id="Group_50" transform="translate(45.895 36.018)">
		<g id="Group_49">
			<path id="Path_100" class="st1" d="M9.6-1.2c-0.4-0.4-1-0.4-1.4,0L5.6,1.4L4.4,0.2c-0.4-0.4-1-0.4-1.4,0s-0.4,1,0,1.4l0,0L5,3.4
				c0.4,0.4,1,0.4,1.4,0c0,0,0,0,0,0l3.2-3.2C9.9-0.2,9.9-0.8,9.6-1.2z"/>
		</g>
	</g>
	<g id="Group_52" transform="translate(58.413 37.902)">
		<g id="Group_51">
			<path id="Path_101" class="st0" d="M12.8-1.8H1.6c-0.5,0-1,0.4-1,1c0,0.5,0.4,1,1,1h11.2c0.5,0,1-0.4,1-1
				C13.8-1.4,13.3-1.8,12.8-1.8L12.8-1.8z"/>
		</g>
	</g>
</g>
</svg>
