<?xml version="1.0" encoding="utf-8"?>
<!-- Generator: Adobe Illustrator 23.0.3, SVG Export Plug-In . SVG Version: 6.00 Build 0)  -->
<svg version="1.1" id="user" xmlns="http://www.w3.org/2000/svg" xmlns:xlink="http://www.w3.org/1999/xlink" x="0px" y="0px"
	 viewBox="0 0 55.4 55.4" style="enable-background:new 0 0 55.4 55.4;" xml:space="preserve">
<style type="text/css">
	.st0{fill:#FF4B4B;}
	.st1{fill:#303E48;}
</style>
<g id="Group_54" transform="translate(45.622 37.359)">
	<g id="Group_53">
		<path id="Path_102" class="st0" d="M-1.3-1.2L-1.3-1.2c-0.4-0.4-1-0.4-1.3-0.1S-3-0.4-2.6,0l0,0L-2.6,0c0.3,0.3,0.9,0.3,1.3,0
			S-1-0.9-1.3-1.2L-1.3-1.2z"/>
	</g>
</g>
<g id="Group_56" transform="translate(0 0)">
	<g id="Group_55" transform="translate(0 0)">
		<path id="Path_103" class="st1" d="M50,49.2h-2.5v-5.3c0-1.8-0.4-3.4-1.2-4.9c-0.3-0.4-0.8-0.6-1.3-0.3s-0.6,0.8-0.4,1.2
			c0.7,1.3,1,2.7,1,4.2v5.3H9.8v-5.4c0-4.4,3-8,7.2-9l3.1-0.7c0.6-0.2,1.2-0.3,1.7-0.7c3.4,2.9,8.5,2.9,12,0c0.5,0.3,1,0.5,1.6,0.7
			l3.1,0.7c0.8,0.2,1.5,0.4,2.3,0.8c0.4,0.3,1,0.1,1.3-0.4c0.3-0.5,0.1-1-0.4-1.3c-0.8-0.4-1.8-0.8-2.7-0.9l-3.1-0.7
			C34.2,32.1,33,30.6,33,29v-0.3c2.1-1.2,3.5-3.3,3.9-5.6h0.4c1.4,0,2.6-1.2,2.6-2.6v-1.7c0-1.4-1.2-2.6-2.6-2.6H37v-3.7
			c0-4.4-3.6-8-8-8h-2.6c-4.4,0-8,3.6-8,8v3.7h-0.3c-1.4,0-2.6,1.2-2.6,2.6v1.7c0,1.4,1.2,2.6,2.6,2.6h0.4c0.4,2.3,1.8,4.4,3.9,5.5
			V29c0,1.6-1.2,3-2.8,3.4l-3.1,0.7c-5,1.1-8.6,5.6-8.6,10.8v5.3H5.4c-0.5,0-0.9,0.4-0.9,0.9S4.9,51,5.4,51h44.7
			c0.5,0,0.9-0.4,0.9-0.9S50.5,49.2,50,49.2L50,49.2z M36.9,18h0.3c0.4,0,0.8,0.3,0.8,0.8v1.7c0,0.4-0.3,0.8-0.8,0.8h-0.3V18z
			 M18.5,21.3h-0.3c-0.4,0-0.8-0.3-0.8-0.8v-1.8c0-0.4,0.3-0.8,0.8-0.8h0.3V21.3z M27.7,33.9c-1.7,0-3.3-0.6-4.6-1.6
			c0.7-0.8,1.1-1.8,1.2-2.9c0.7,0.2,1.4,0.3,2.2,0.3H29c0.8,0,1.4-0.1,2.1-0.3c0.1,1.1,0.5,2.1,1.2,2.9C31,33.3,29.4,33.9,27.7,33.9
			z M20.2,12.5c0-3.4,2.8-6.1,6.1-6.1H29c3,0,5.6,2.2,6,5.2c-0.1,0-0.2,0.1-0.2,0.2C32,14.5,28,16.2,24,16.2h-3.8
			C20.2,16.2,20.2,12.5,20.2,12.5z M20.2,21.8V18H24c2.3,0,4.4-0.4,6.5-1.3c1.7-0.7,3.2-1.6,4.5-2.8v7.9c0,3.4-2.8,6.1-6.1,6.1h-2.6
			C23,27.9,20.2,25.1,20.2,21.8z"/>
	</g>
</g>
<g id="Group_58" transform="translate(8.677 39.819)">
	<g id="Group_57">
		<path id="Path_104" class="st0" d="M7.2-1.6C6.9-2,6.3-2,5.9-1.8C4.1-0.4,3.1,1.7,3.1,4c0,0.5,0.4,0.9,0.9,0.9S4.9,4.5,4.9,4
			c0-1.7,0.8-3.3,2.1-4.4C7.4-0.6,7.4-1.2,7.2-1.6z"/>
	</g>
</g>
<g id="Group_60" transform="translate(14.692 38.335)">
	<g id="Group_59">
		<path id="Path_105" class="st0" d="M4-1C3.9-1.5,3.4-1.8,2.9-1.7l0,0H2.8C2.4-1.5,2-1.1,2.1-0.6S2.7,0.2,3.2,0l0,0l0,0
			C3.7,0,4-0.5,4-1z"/>
	</g>
</g>
</svg>
